<svg xmlns="http://www.w3.org/2000/svg" x="0" y="0" width="160" height="192" viewBox="0 0 160 192" class="mascot-svg" role="img" aria-label="Maskot Belo — Lompat Kegirangan">
    <defs>
    <linearGradient id="body-ac2" x1="0" y1="0" x2="0" y2="1">
      <stop offset="0" stop-color="#CDEFFC"/><stop offset="1" stop-color="#6FC3EF"/>
    </linearGradient>
    <linearGradient id="page-ac2" x1="0" y1="0" x2="0" y2="1">
      <stop offset="0" stop-color="#FFF8E9"/><stop offset="1" stop-color="#FFEACB"/>
    </linearGradient>
    <linearGradient id="ribbon-ac2" x1="0" y1="0" x2="1" y2="1">
      <stop offset="0" stop-color="#FFD873"/><stop offset="1" stop-color="#F3A83C"/>
    </linearGradient>
    <radialGradient id="blush-ac2">
      <stop offset="0" stop-color="#FF9FB8" stop-opacity=".78"/><stop offset="1" stop-color="#FF9FB8" stop-opacity="0"/>
    </radialGradient>
  </defs>
    <ellipse cx="80" cy="184" rx="34" ry="7" fill="#25455D" opacity=".14"/>
    <g transform="translate(0 -8) rotate(0 80 96)">
      <g transform="rotate(45 60 132)">
    <rect x="52.5" y="132" width="15" height="26" rx="7.5" fill="#8FD6F7" stroke="#25455D" stroke-width="3.2" stroke-linejoin="round"/>
    <circle cx="60" cy="158" r="9" fill="#FFF8E9" stroke="#25455D" stroke-width="3.2"/>
  </g><g transform="rotate(-45 100 132)">
    <rect x="92.5" y="132" width="15" height="26" rx="7.5" fill="#8FD6F7" stroke="#25455D" stroke-width="3.2" stroke-linejoin="round"/>
    <circle cx="100" cy="158" r="9" fill="#FFF8E9" stroke="#25455D" stroke-width="3.2"/>
  </g>
    <rect x="30" y="34" width="100" height="108" rx="30" fill="url(#body-ac2)" stroke="#25455D" stroke-width="3.5" stroke-linejoin="round"/>
    <rect x="34" y="39" width="18" height="98" rx="9" fill="#4AA8DE"/>
    <rect x="112" y="44" width="12" height="88" rx="5" fill="url(#page-ac2)" opacity=".95"/>
    <line x1="114" y1="58" x2="122" y2="58" stroke="#4AA8DE" stroke-width="2" stroke-linecap="round" opacity=".5"/>
    <line x1="114" y1="80" x2="122" y2="80" stroke="#4AA8DE" stroke-width="2" stroke-linecap="round" opacity=".5"/>
    <line x1="114" y1="102" x2="122" y2="102" stroke="#4AA8DE" stroke-width="2" stroke-linecap="round" opacity=".5"/>
    <polygon points="70,4 88,4 88,36 79,27 70,36" fill="url(#ribbon-ac2)" stroke="#25455D" stroke-width="3" stroke-linejoin="round"/>
    <ellipse cx="55" cy="54" rx="17" ry="11" fill="#FFFFFF" opacity=".38"/>
    <ellipse cx="102" cy="118" rx="9" ry="16" fill="#FFFFFF" opacity=".1"/>
  <g transform="rotate(-160 26 86)">
    <rect x="18" y="86" width="16" height="40" rx="8" fill="#8FD6F7" stroke="#25455D" stroke-width="3.2" stroke-linejoin="round"/>
    <circle cx="26" cy="126" r="11" fill="#FFF8E9" stroke="#25455D" stroke-width="3.2"/>
  </g><g transform="rotate(160 134 86)">
    <rect x="126" y="86" width="16" height="40" rx="8" fill="#8FD6F7" stroke="#25455D" stroke-width="3.2" stroke-linejoin="round"/>
    <circle cx="134" cy="126" r="11" fill="#FFF8E9" stroke="#25455D" stroke-width="3.2"/>
  </g><ellipse cx="44" cy="97" rx="10" ry="7" fill="url(#blush-ac2)"/><ellipse cx="116" cy="97" rx="10" ry="7" fill="url(#blush-ac2)"/><path d="M 49 84 Q 58 75 67 84" stroke="#25455D" stroke-width="3.5" stroke-linecap="round" fill="none"/><path d="M 93 84 Q 102 75 111 84" stroke="#25455D" stroke-width="3.5" stroke-linecap="round" fill="none"/><path d="M 65 102 Q 80 124 95 102 Q 80 111 65 102 Z" fill="#25455D"/>
    <path d="M 70 104 Q 80 108 90 104" stroke="#fff" stroke-width="3" fill="none" stroke-linecap="round"/><polygon points="20,53 22.1,57.9 27,60 22.1,62.1 20,67 17.9,62.1 13,60 17.9,57.9" fill="#FFD873"/><polygon points="142,64 143.8,68.2 148,70 143.8,71.8 142,76 140.2,71.8 136,70 140.2,68.2" fill="#FFD873"/><polygon points="34,19 35.5,22.5 39,24 35.5,25.5 34,29 32.5,25.5 29,24 32.5,22.5" fill="#FFD873"/><polygon points="126,19 127.5,22.5 131,24 127.5,25.5 126,29 124.5,25.5 121,24 124.5,22.5" fill="#FFD873"/>
    </g>
  </svg>